# xmcd
#
# Track frame offsets:
#	150
#	9485
#	16097
#	26083
#	37026
#	43391
#	56657
#	62627
#	77178
#	89173
#	106369
#	114872
#	125525
#	140003
#
# Disc length: 2011 seconds
#
# Revision: 1
# Processed by: cddbd v1.5.1PL0 Copyright (c) Steve Scherf et al.
# Submitted via: audiograbber 1.83.01
#
DISCID=c107d90e
DTITLE=Peter und Paul Chor - Stimmen der Neva
DYEAR=2004
DGENRE=Volksmusik
TTITLE0=Warlamow (1801-1841) - Roter Safran
TTITLE1=Ukrainisches Weihnachtslied - Schjedrik
TTITLE2=Ukrainisches Volkslied - Dudarik
TTITLE3=Aljabjew (1787-1851) - Einsam hell klingt ein Glocklein
TTITLE4=Russisches Volkslied - Auf dem kleinen Berg
TTITLE5=Nowikow (1896-1984) - Weibe Birke
TTITLE6=Russisches Volkslied - Beim Tor des Hauses des Vaters
TTITLE7=Russische Romanze - Ich hab sie getroffen
TTITLE8=Russisches Volkslied - Schwarze Augen
TTITLE9=Russisches Volkslied - Die Steppe
TTITLE10=Strawinskij (1882-1971) - Credo
TTITLE11=Rachmaninow (1873-1943) - Gottes Mutter, Jungfrau, freue Dich
TTITLE12=Taneew (1856-1915) - Venedig in der Nacht
TTITLE13=Aljabjew (1787-1851) - Die Nachtigall
EXTD=
EXTT0=
EXTT1=
EXTT2=
EXTT3=
EXTT4=
EXTT5=
EXTT6=
EXTT7=
EXTT8=
EXTT9=
EXTT10=
EXTT11=
EXTT12=
EXTT13=
PLAYORDER=
